{"title":"The.Rachel.Maddow.Show.2013.04.26.and.The.Boston.Special.XviD","uid":8416262,"size":733816832,"categoryP":"video","categoryS":"tv_shows","magnet":"?xt=urn:btih:39b88e76552bbc9d7193f39db4d31cd6672aee16&amp;dn=The.Rachel.Maddow.Show.2013.04.26.and.The.Boston.Special.XviD&amp;tr=udp%3A%2F%2Ftracker.openbittorrent.com%3A80&amp;tr=udp%3A%2F%2Fopen.demonii.com%3A1337&amp;tr=udp%3A%2F%2Ftracker.coppersurfer.tk%3A6969&amp;tr=udp%3A%2F%2Fexodus.desync.com%3A6969","seeders":0,"leechers":0,"uploader":null,"files":1,"time":1367050092,"description":"The Rachel Maddow Show plus The Boston Special\nApril 26 - 2013\n\n\n\nVideo\nSource \t\t\t\t : Small Fuzzy SDTV\nID                               : 0\nFormat                           : MPEG-4 Visual\nFormat profile                   : Advanced Simple@L5\nFormat settings, BVOP            : 1\nFormat settings, QPel            : No\nFormat settings, GMC             : No warppoints\nFormat settings, Matrix          : Default (H.263)\nMuxing mode                      : Packed bitstream\nCodec ID                         : XVID\nCodec ID/Hint                    : XviD\nDuration                         : 1h 27mn\nBit rate                         : 956 Kbps\nWidth                            : 624 pixels\nHeight                           : 352 pixels\nDisplay aspect ratio             : 16:9\nFrame rate                       : 29.970 fps\nColor space                      : YUV\nChroma subsampling               : 4:2:0\nBit depth                        : 8 bits\nScan type                        : Progressive\nCompression mode                 : Lossy\nBits/(Pixel*Frame)               : 0.145\nStream size                      : 595 MiB (85%)\nWriting library                  : XviD 1.2.1 (UTC 2008-12-04)\n\nAudio\nID                               : 1\nFormat                           : MPEG Audio\nFormat version                   : Version 1\nFormat profile                   : Layer 3\nMode                             : Joint stereo\nMode extension                   : MS Stereo\nCodec ID                         : 55\nCodec ID/Hint                    : MP3\nDuration                         : 1h 27mn\nBit rate mode                    : Constant\nBit rate                         : 160 Kbps\nChannel(s)                       : 2 channels\nSampling rate                    : 48.0 KHz\nCompression mode                 : Lossy\nStream size                      : 99.6 MiB (14%)","torrent":{"xt":"urn:btih:39b88e76552bbc9d7193f39db4d31cd6672aee16","amp;dn":"The.Rachel.Maddow.Show.2013.04.26.and.The.Boston.Special.XviD","amp;tr":["udp%3A%2F%2Ftracker.openbittorrent.com%3A80","udp%3A%2F%2Fopen.demonii.com%3A1337","udp%3A%2F%2Ftracker.coppersurfer.tk%3A6969","udp%3A%2F%2Fexodus.desync.com%3A6969"],"infoHash":"39b88e76552bbc9d7193f39db4d31cd6672aee16","infoHashBuffer":{"type":"Buffer","data":[57,184,142,118,85,43,188,157,113,147,243,157,180,211,28,214,103,42,238,22]},"announce":[],"urlList":[]}}